@startuml

state END_GAME

state Resume ##green {
    state " " as 1

    [*] -[#green]-> 1
    1 -[#green]-> [*]
    note on link #white
        <b>System shows</b>
        * start new match
    end note

}

END_GAME -[#green]-> Resume

note on link #white
    <b>Player request to</b>
    * Resume
end note

Resume -[#green]-> :Start

:Start -[#green]-> IN_GAME